# Blender v2.82 (sub 7) OBJ File: ''
# www.blender.org
mtllib Backdrop.mtl
o Cube_Cube.001
v -10.000000 10.908620 10.000000
v -10.000000 10.908620 -10.000000
v 10.000000 10.908620 10.000000
v 10.000000 10.908620 -10.000000
v -9.156118 0.000000 9.156118
v -10.000000 0.843881 10.000000
v -9.320751 0.016215 9.320751
v -9.479058 0.064237 9.479058
v -9.624954 0.142220 9.624954
v -9.752832 0.247167 9.752832
v -9.857780 0.375046 9.857780
v -9.935763 0.520942 9.935763
v -9.983785 0.679248 9.983785
v -9.156118 0.000000 -9.156118
v -10.000000 0.843881 -10.000000
v -9.320751 0.016215 -9.320751
v -9.479058 0.064237 -9.479058
v -9.624954 0.142220 -9.624954
v -9.752832 0.247167 -9.752832
v -9.857780 0.375046 -9.857780
v -9.935763 0.520942 -9.935763
v -9.983785 0.679248 -9.983785
v 10.000000 0.843881 10.000000
v 10.000000 0.000000 9.156118
v 10.000000 0.679248 9.983785
v 10.000000 0.520942 9.935763
v 10.000000 0.375046 9.857780
v 10.000000 0.247167 9.752832
v 10.000000 0.142220 9.624954
v 10.000000 0.064237 9.479058
v 10.000000 0.016215 9.320751
v 10.000000 0.000000 -9.156118
v 10.000000 0.843881 -10.000000
v 10.000000 0.016215 -9.320751
v 10.000000 0.064237 -9.479058
v 10.000000 0.142220 -9.624954
v 10.000000 0.247167 -9.752832
v 10.000000 0.375046 -9.857780
v 10.000000 0.520942 -9.935763
v 10.000000 0.679248 -9.983785
vt 0.385549 0.750000
vt 0.385549 1.000000
vt 0.625000 1.000000
vt 0.625000 0.750000
vt 0.385549 0.250000
vt 0.385549 0.500000
vt 0.625000 0.500000
vt 0.625000 0.250000
vt 0.385549 0.000000
vt 0.625000 0.000000
vt 0.135549 0.510548
vt 0.133491 0.508491
vt 0.133491 0.741509
vt 0.135549 0.739451
vt 0.131512 0.506512
vt 0.131512 0.743488
vt 0.129688 0.504688
vt 0.129688 0.745312
vt 0.125000 0.503090
vt 0.125000 0.746910
vt 0.375000 0.246910
vt 0.379688 0.248222
vt 0.379688 0.001778
vt 0.375000 0.003090
vt 0.381512 0.249197
vt 0.381512 0.000803
vt 0.383491 0.249797
vt 0.383491 0.000203
vt 0.375000 0.510549
vt 0.375000 0.508491
vt 0.375000 0.506512
vt 0.375000 0.504688
vt 0.375000 0.500000
vt 0.128090 0.500000
vt 0.379688 0.500000
vt 0.379688 0.251778
vt 0.375000 0.253090
vt 0.381512 0.500000
vt 0.381512 0.250803
vt 0.383491 0.500000
vt 0.383491 0.250203
vt 0.375000 0.741509
vt 0.375000 0.739452
vt 0.375000 0.743488
vt 0.375000 0.745312
vt 0.128090 0.750000
vt 0.375000 0.750000
vt 0.375000 0.996910
vt 0.379688 0.998222
vt 0.379688 0.750000
vt 0.381512 0.999197
vt 0.381512 0.750000
vt 0.383491 0.999797
vt 0.383491 0.750000
vn 0.0000 0.0490 -0.9988
vn 0.7055 0.0671 -0.7055
vn 0.7071 0.0000 -0.7071
vn 0.0000 0.0000 -1.0000
vn 0.7055 0.0671 0.7055
vn 0.0000 0.0490 0.9988
vn 0.0000 0.0000 1.0000
vn 0.7071 0.0000 0.7071
vn 0.0368 0.9986 0.0368
vn 0.1231 0.9847 0.1231
vn 0.1231 0.9847 -0.1231
vn 0.0368 0.9986 -0.0368
vn 0.2232 0.9488 0.2232
vn 0.2232 0.9488 -0.2232
vn 0.3258 0.8875 0.3258
vn 0.3258 0.8875 -0.3258
vn 0.4297 0.7941 0.4297
vn 0.4297 0.7941 -0.4297
vn 0.5310 0.6603 0.5310
vn 0.5310 0.6603 -0.5310
vn 0.6204 0.4796 0.6204
vn 0.6204 0.4796 -0.6204
vn 0.6839 0.2541 0.6839
vn 0.6839 0.2541 -0.6839
vn 0.0000 0.9988 0.0490
vn 0.0000 0.9808 0.1951
vn 0.0000 0.9239 0.3827
vn 0.0000 0.8314 0.5556
vn 0.0000 0.7071 0.7071
vn 0.0000 0.5556 0.8314
vn 0.0000 0.3827 0.9239
vn 0.0000 0.1951 0.9808
vn 0.0000 0.9808 -0.1951
vn 0.0000 0.9988 -0.0490
vn 0.0000 0.9239 -0.3827
vn 0.0000 0.8314 -0.5556
vn 0.0000 0.7071 -0.7071
vn 0.0000 0.5556 -0.8314
vn 0.0000 0.3827 -0.9239
vn 0.0000 0.1951 -0.9808
usemtl None
s 1
f 23/1/1 6/2/2 1/3/3 3/4/4
f 15/5/5 33/6/6 4/7/7 2/8/8
f 6/9/2 15/5/5 2/8/8 1/10/3
f 14/11/9 16/12/10 7/13/11 5/14/12
f 16/12/10 17/15/13 8/16/14 7/13/11
f 17/15/13 18/17/15 9/18/16 8/16/14
f 18/17/15 19/19/17 10/20/18 9/18/16
f 19/21/17 20/22/19 11/23/20 10/24/18
f 20/22/19 21/25/21 12/26/22 11/23/20
f 21/25/21 22/27/23 13/28/24 12/26/22
f 22/27/23 15/5/5 6/9/2 13/28/24
f 32/29/25 34/30/26 16/12/10 14/11/9
f 34/30/26 35/31/27 17/15/13 16/12/10
f 35/31/27 36/32/28 18/17/15 17/15/13
f 36/32/28 37/33/29 19/34/17 18/17/15
f 37/33/29 38/35/30 20/36/19 19/37/17
f 38/35/30 39/38/31 21/39/21 20/36/19
f 39/38/31 40/40/32 22/41/23 21/39/21
f 40/40/32 33/6/6 15/5/5 22/41/23
f 5/14/12 7/13/11 31/42/33 24/43/34
f 7/13/11 8/16/14 30/44/35 31/42/33
f 8/16/14 9/18/16 29/45/36 30/44/35
f 9/18/16 10/46/18 28/47/37 29/45/36
f 10/48/18 11/49/20 27/50/38 28/47/37
f 11/49/20 12/51/22 26/52/39 27/50/38
f 12/51/22 13/53/24 25/54/40 26/52/39
f 13/53/24 6/2/2 23/1/1 25/54/40
f 14/11/9 5/14/12 24/43/34 32/29/25
